<svg version="1.1" xmlns="http://www.w3.org/2000/svg" style="display: block;" viewBox="0 0 2048 2048" width="1000" height="1000" preserveAspectRatio="none">
<defs>
	<linearGradient id="Gradient1" gradientUnits="userSpaceOnUse" x1="489.716" y1="1092.14" x2="537.219" y2="653.915">
		<stop class="stop0" offset="0" stop-opacity="1" stop-color="rgb(206,206,206)"/>
		<stop class="stop1" offset="1" stop-opacity="1" stop-color="rgb(254,252,253)"/>
	</linearGradient>
	<linearGradient id="Gradient2" gradientUnits="userSpaceOnUse" x1="464.853" y1="1214.48" x2="733.495" y2="1005.07">
		<stop class="stop0" offset="0" stop-opacity="1" stop-color="rgb(164,163,164)"/>
		<stop class="stop1" offset="1" stop-opacity="1" stop-color="rgb(227,226,227)"/>
	</linearGradient>
	<linearGradient id="Gradient3" gradientUnits="userSpaceOnUse" x1="1640.51" y1="1170.34" x2="1241.51" y2="1014.37">
		<stop class="stop0" offset="0" stop-opacity="1" stop-color="rgb(165,164,165)"/>
		<stop class="stop1" offset="1" stop-opacity="1" stop-color="rgb(235,234,235)"/>
	</linearGradient>
</defs>
<path transform="translate(0,0)" fill="rgb(236,236,236)" d="M 476.801 733.952 C 463.432 734.42 457.229 732.421 444.757 726.756 C 421.395 716.143 398.386 704.145 375.545 692.504 L 266.187 636.679 C 248.062 627.477 156.971 584.34 148.699 575.821 C 147.096 574.171 145.88 572.281 144.855 570.229 C 140.432 561.378 137.016 551.834 133.011 542.759 C 127.123 529.416 120.65 516.279 114.632 502.979 C 108.043 488.415 100.082 474.217 94.4286 459.265 C 93.46 456.704 91.569 452.802 92.7055 450.303 C 96.4227 450.395 213.698 511.586 225.285 517.493 L 793.457 808.105 L 887.46 857.141 C 908.044 867.876 939.513 880.86 956.548 896.301 C 960.995 900.33 991.016 935.059 991.392 938.734 C 994.37 967.826 993.054 1000.73 993.084 1030.42 L 991.946 1308.79 C 1007.81 1320.91 1011.97 1320.01 1010.82 1341.75 C 1005.89 1349.48 1001.68 1352.96 994.996 1359.18 C 992.137 1375.65 994.221 1401.74 993.76 1418.96 C 993.59 1429.63 993.648 1440.39 994.204 1450.96 C 994.899 1464.18 1013.8 1466.19 1014.29 1476.9 C 1015.86 1510.61 1013.44 1544.46 1014.61 1578.3 C 1015.33 1599.14 1012.86 1623.33 1015.87 1644.04 C 1006.53 1638.31 991.637 1630.73 981.676 1625.22 L 906.88 1584.11 C 888.648 1574.32 867.757 1563.88 850.161 1553.37 C 849.611 1542.79 850.351 1531.2 850.432 1520.51 C 850.892 1459.74 847.591 1397.81 850.063 1337.12 C 855.117 1328.78 885.701 1290.51 892.995 1283.34 C 898.41 1305.37 893.605 1307.45 896.222 1327.26 C 892.087 1334.17 882.63 1340.54 876.24 1349.16 C 874.65 1361.04 875.303 1406.7 875.488 1420.66 C 875.736 1439.46 873.343 1491.21 875.941 1507.07 C 875.773 1513.86 875.222 1528.07 876.941 1534.14 C 884.261 1540.31 917.501 1559.23 926.94 1559.93 C 932.812 1555.35 929.302 1419.84 929.394 1400.17 L 930.238 1039.74 C 930.19 1007.53 927.433 974.997 929.422 942.978 C 930.02 933.347 941.561 918.348 944.902 906.482 C 927.53 894.324 895.422 879.198 875.493 869.111 L 757.308 809.371 L 315.245 584.192 C 295.11 573.764 163.565 504.906 155.304 504.966 C 155.693 511.867 182.602 570.744 188.879 575.996 C 196.737 582.571 225.401 596.336 236.665 602.11 L 349.037 659.284 L 408.574 689.888 C 417.067 694.292 427.969 700.433 436.525 704.074 C 444.681 707.545 447.064 686.406 460.349 682.231 C 467.429 679.234 474.612 680.894 481.21 684.224 C 491.22 689.276 494.986 705.908 504.66 710.672 C 543.714 729.905 582.251 750.189 621.307 769.39 C 648.343 782.682 675.486 800.197 703.457 811.139 C 705.195 810.581 706.938 810.039 708.687 809.516 C 735.241 801.474 740.953 815.586 746.786 837.631 C 754.845 843.656 775.593 853.369 785.74 858.671 L 868.884 902.156 C 875.671 897.724 880.672 893.887 889.072 893.606 C 894.382 893.388 899.55 895.35 903.379 899.036 C 910.467 905.851 911.153 914.16 911.515 923.13 C 904.826 934.43 901.817 935.324 889.799 939.809 C 871.788 935.448 871.026 933.511 862.315 917.247 C 821.792 895.623 780.055 875.86 739.076 853.982 C 727.697 856.803 714.149 863.193 703.009 854.805 C 694.25 848.21 693.1 836.707 691.963 826.576 C 672.756 815.581 498.496 725.573 491.797 725.413 C 486.726 725.292 480.65 731.027 476.801 733.952 z M 942.359 1078.73 L 940.985 1303.4 C 941.035 1328.16 942.204 1352.24 942.128 1377.45 C 941.839 1418.24 941.828 1459.04 942.096 1499.83 C 942.229 1510.35 942.024 1538.05 943.142 1547.72 C 942.888 1551.33 941.844 1567.61 944.149 1569.51 C 951.819 1575.84 990.573 1600.55 999.339 1596.8 C 1000.46 1586.79 1000.92 1517.83 998.256 1509.62 L 995.234 1508.09 C 986.518 1509.47 975.654 1504.17 970.928 1496.68 C 965.315 1487.78 966.102 1482.84 967.833 1473.21 C 971.8 1468 977.105 1463.26 981.854 1458.69 L 981.495 1359.92 C 966.707 1351.23 955.672 1339.16 966.125 1321.99 C 969.506 1316.44 974.191 1312.92 978.593 1308.1 C 979.826 1291.39 978.164 1264.26 978.157 1246.4 L 977.922 1106.57 L 978.069 998.949 C 978.064 982.827 978.262 966.233 977.767 950.12 C 977.606 944.884 975.848 940.994 972.769 936.859 C 969.13 932.071 964.66 925.636 960.262 921.878 C 941.147 921.619 941.796 971.987 942.456 985.493 C 943.952 1016.09 940.281 1048.35 942.359 1078.73 z M 720.336 820.15 C 701.521 824.419 704.244 843.713 719.889 845.526 C 735.64 839.59 736.33 824.877 720.336 820.15 z M 472.529 718.842 C 478.608 716.813 481.986 710.333 480.168 704.188 C 478.35 698.044 471.99 694.445 465.786 696.05 C 461.579 697.139 458.301 700.436 457.236 704.65 C 456.172 708.864 457.491 713.322 460.677 716.278 C 463.862 719.235 468.407 720.217 472.529 718.842 z M 987.891 1471.17 C 966.892 1475.85 970.43 1497.47 993.923 1496.96 C 999.027 1494.43 1002.73 1492.56 1004.77 1486.85 C 1005.84 1483.82 1005.58 1480.47 1004.06 1477.63 C 1000.69 1471.4 994.218 1470.9 987.891 1471.17 z M 984.512 1321.03 C 980.398 1322.93 976.473 1324.61 972.583 1326.94 C 970.265 1342.78 971.835 1346.44 989.019 1346.17 C 1006.17 1343.81 1004.53 1322.06 984.512 1321.03 z"/>
<path transform="translate(0,0)" fill="rgb(222,221,222)" fill-opacity="0.0352941" d="M 942.359 1078.73 C 944.654 1073.72 943.008 1069.68 945.387 1063.66 C 947.144 1068.8 946.303 1108.04 946.312 1117 C 946.362 1169.81 946.405 1222.69 946.287 1275.5 C 946.257 1288.65 944.517 1302.17 944.538 1315.32 C 944.557 1326.76 946.38 1338.42 946.49 1349.97 L 946.478 1478.35 C 946.488 1497.91 947.391 1522.8 944.509 1542.08 C 944.211 1544.08 944.046 1544.65 943.857 1546.85 L 943.142 1547.72 C 942.024 1538.05 942.229 1510.35 942.096 1499.83 C 941.828 1459.04 941.839 1418.24 942.128 1377.45 C 942.204 1352.24 941.035 1328.16 940.985 1303.4 L 942.359 1078.73 z"/>
<path transform="translate(0,0)" fill="rgb(236,236,236)" d="M 1104.78 888.285 C 1119.51 878.529 1152.36 863.521 1169.09 855.156 L 1280.88 798.025 L 1479.77 695.672 C 1551.34 658.142 1623.21 621.199 1695.39 584.848 L 1862.15 499.61 C 1888.56 486.612 1914.72 473.111 1940.61 459.114 C 1946.05 456.138 1951.28 455.105 1956.26 451.788 C 1952.6 461.795 1944.52 475.69 1939.75 486.141 L 1912.94 544.366 C 1909.67 551.539 1907.05 559.007 1903.62 566.097 C 1902.17 569.095 1900.62 572.193 1898.28 574.601 C 1887.3 585.885 1815.66 619.116 1797.12 628.423 L 1705.77 675.204 C 1676.96 689.693 1647.2 703.829 1618.8 719.045 C 1605.4 741.027 1601.66 745.483 1575.72 736.719 C 1567.04 740.492 1557.63 745.28 1549.27 749.802 C 1504.18 774.2 1456 795.099 1411.18 819.778 C 1402.64 844.659 1388.73 852.35 1368.98 831.682 C 1365.98 819.334 1367.72 810.795 1378.35 802.912 C 1387.7 795.976 1394.49 803.352 1403.88 805.123 C 1410.35 806.342 1421.37 799.116 1427.45 796.02 L 1461 779.069 L 1524.66 746.384 C 1536.81 740.209 1556.97 730.755 1567.82 723.473 C 1569.07 711.363 1570.91 695.939 1586.21 693.353 C 1597.41 691.459 1605.16 697.938 1613.65 704.182 C 1625.75 700.802 1652.72 685.405 1665.18 678.924 L 1740.66 640.395 L 1820.76 599.969 C 1829.08 595.676 1848.04 586.391 1855.32 581.563 C 1859.85 578.611 1863.74 574.792 1866.78 570.325 C 1871.71 563.066 1894.13 513.134 1895.99 504.428 L 1894.98 503.144 C 1879.72 507.478 1825.98 535.456 1810.06 543.478 L 1607.58 647.422 L 1424.63 740.793 C 1408.46 749.198 1365.44 769.805 1352.7 778.704 C 1351.54 790.824 1351.67 803.706 1352.43 815.863 C 1348.96 826.634 1350.6 853.988 1350.42 866.316 C 1349.65 923.231 1352.78 979.615 1349.01 1036.49 C 1347.93 1052.84 1377.21 1063.9 1346.58 1083.51 C 1331.27 1084 1324.77 1079.42 1320.95 1064.26 C 1324.48 1051.43 1328.84 1049.91 1339.76 1041.73 C 1342.35 1006.85 1339.02 962.276 1340 926.18 C 1340.96 891.374 1343.31 849.91 1339.9 815.805 C 1339.93 807.844 1340.72 797.673 1337.4 790.663 L 1335.61 789.338 C 1326.47 790.74 1293.98 808.088 1283.96 813.127 L 1171.15 870.574 C 1156.12 878.193 1134.16 890.254 1119.16 896.733 C 1115.54 914.832 1116.83 962.707 1116.81 984.373 L 1116.83 1150.48 L 1116.05 1432.71 C 1116.15 1468.25 1114.29 1527.9 1117.69 1562.05 C 1127.28 1558.62 1157.36 1543.37 1165.12 1537.4 C 1166.57 1463.01 1165.48 1384.99 1165.17 1310.38 C 1156.46 1304.04 1145.62 1297.84 1143.75 1286.33 C 1141.78 1274.21 1153.11 1264.42 1164.44 1263.59 C 1170.54 1263.12 1176.56 1265.18 1181.08 1269.31 C 1185.89 1273.75 1188.1 1280.34 1188.31 1286.76 C 1188.49 1292.54 1181.28 1299.11 1179.36 1304.34 C 1178.46 1306.8 1178.06 1314.1 1178.08 1317 C 1178.59 1368.47 1178.23 1419.9 1178.9 1471.37 C 1179.25 1498.55 1179.48 1526.17 1179.03 1553.38 C 1178.88 1556.1 1178.06 1563.93 1175.75 1565.36 C 1151.81 1580.19 1125.95 1592.38 1101.19 1605.9 C 1092.47 1610.66 1083.79 1615.53 1075.07 1620.28 C 1063.06 1626.84 1051.12 1634.18 1038.63 1639.72 C 1041.67 1602.83 1040.67 1565.12 1040.85 1528.12 C 1041.49 1394.37 1041.36 1260.54 1040.87 1126.78 L 1041.06 924.469 L 1040.59 868.992 C 1040.55 855.426 1041.37 840.627 1039.95 827.21 C 1020.38 815.214 1000.76 806.284 980.5 795.822 C 954.609 782.45 929.626 782.347 901.868 774.068 C 909.527 767.552 978.94 733.92 988.492 732.433 C 997.82 734.822 1016.01 745.663 1025.4 750.547 L 1096.78 788.087 C 1115.5 798.054 1144.26 811.779 1161.78 821.94 C 1159.68 826.045 1158.41 829.711 1154.74 832.274 C 1153.1 832.645 1152.14 832.768 1150.53 831.971 C 1097.11 805.386 1044.77 776.574 991.528 749.609 C 981.673 751.015 954.461 762.758 947.937 770.033 L 947.794 771.5 C 954.551 773.468 966.906 774.073 971.28 775.682 C 987.763 781.745 1042.06 808.736 1053.55 818.87 C 1055.15 839.127 1054.66 867.928 1054.46 888.653 C 1054.26 913.208 1054.21 937.764 1054.3 962.32 L 1053.65 1275.74 L 1053.56 1369.71 C 1053.56 1376.63 1053.05 1402.79 1053.85 1408.5 C 1053 1417.6 1053.46 1502.88 1054.88 1510.26 C 1054.95 1521.88 1053.29 1579.75 1056.54 1591.51 C 1061.16 1597.34 1098.82 1574.19 1100.12 1572.33 C 1106.37 1563.37 1103.97 1515.11 1103.98 1506.64 L 1103.99 1394.48 L 1103.78 1024.49 L 1103.65 943.685 C 1103.6 927.418 1103.25 903.827 1104.78 888.285 z M 1597.82 729.961 C 1609.01 719.731 1608.57 715.217 1598.79 703.824 C 1594.21 703.873 1588.29 703.765 1583.84 704.188 C 1579.7 707.592 1577.69 709.763 1577.3 715.475 C 1577.06 719.195 1578.36 722.851 1580.91 725.571 C 1585.01 730.013 1592.11 731.524 1597.82 729.961 z"/>
<path transform="translate(0,0)" fill="rgb(222,221,222)" d="M 234.762 768.121 C 251.282 771.899 281.818 792.204 300.469 799.174 C 325.058 808.363 316.828 807.315 343.692 808.043 C 362.116 820.992 359.469 827.931 356.364 847.947 C 369.805 855.6 392.944 866.972 408.007 874.586 C 421.495 881.404 502.299 926.469 508.822 924.65 C 526.583 919.699 562.963 902.373 582.468 895.788 L 583.677 895.388 C 629.101 918.216 674.326 941.437 719.349 965.046 C 742.017 976.697 778.723 994.643 799.521 1008.03 C 800.909 1025.51 800.088 1050.57 799.996 1068.6 C 806.132 1076.16 815.624 1085.8 815.727 1095.7 C 815.923 1114.61 788.659 1123.11 776.393 1109.65 C 768.632 1101.14 769.472 1093.82 769.966 1083.49 C 775.453 1078.7 780.783 1073.74 785.949 1068.61 C 785.898 1053.07 785.762 1034.9 784.352 1019.58 C 774.755 1013.01 753.732 1002.66 742.817 996.977 C 718.262 984.025 693.6 971.279 668.833 958.738 C 649.486 948.839 599.205 921.171 581.574 915.29 C 572.106 918.054 536.428 932.169 529.622 937.521 L 529.634 938.613 C 582.58 967.348 636.724 994.251 689.237 1023.48 C 712.014 1036.15 706.813 1034.87 729.75 1027.87 C 739.473 1024.91 757.813 1040.11 756.456 1052.11 C 755.212 1063.11 755.528 1065.05 746.955 1073.93 C 740.993 1077.57 737.701 1079.6 730.467 1080.02 C 704.44 1081.52 708.679 1054.68 696.326 1047.3 C 676.825 1035.65 653.407 1024.09 633.207 1013.58 L 420.035 900.549 C 392.971 886.171 365.639 873.352 339.436 857.376 C 331.283 852.406 320.732 847.232 313.77 840.946 C 312.197 837.537 312.604 827.157 312.424 822.336 C 306.719 819.089 286.552 805.901 281.401 809.007 C 281.451 809.331 281.5 809.655 281.549 809.98 C 293.797 828.731 299.212 853.953 315.325 869.623 C 319.77 873.946 327.761 876.733 332.826 879.174 C 374.726 899.365 416.008 921.556 457.461 942.629 C 489.082 958.704 522.673 973.717 552.776 992.366 C 563.384 989.445 564.078 988.279 575.177 987.457 C 600.128 1003.18 597.938 1017.21 576.734 1034.75 C 554.406 1036.05 549.523 1029.32 544.589 1008.58 C 529.026 997.687 503.113 986.326 485.697 977.27 L 344.157 904.931 C 332.598 899.072 282.225 876.419 279.06 869.927 C 273.529 858.581 233.76 774.321 234.762 768.121 z M 717.002 1057.95 C 723.857 1067.5 724.83 1067.87 736.24 1065.14 C 753.045 1051.72 741.928 1040.61 723.603 1042.17 C 717.219 1047.7 717.705 1047.91 717.112 1056.32 L 717.002 1057.95 z"/>
<path transform="translate(0,0)" fill="url(#Gradient3)" d="M 1286.1 909.668 C 1288.19 904.543 1286.29 900.213 1289.91 896.609 C 1293.81 895.374 1294.44 895.891 1298.59 897.117 C 1297.78 913.722 1298.81 935.664 1299.01 952.706 C 1299.4 982.089 1299.5 1011.48 1299.31 1040.86 C 1299.35 1060.07 1299.57 1079.28 1299.95 1098.48 C 1300.02 1105.86 1299.34 1119.43 1300.31 1125.98 C 1306.85 1125.42 1311.62 1122 1317.43 1119.21 C 1368.32 1094.66 1417.52 1070.09 1469.2 1046.99 C 1482.05 1041.25 1539.12 1062.95 1552 1059.03 C 1577.76 1051.18 1622.5 1028.29 1645.76 1017.79 C 1665.16 1008.83 1698.52 992.157 1717.22 985.209 C 1711.22 993.114 1700.17 1019.85 1695.65 1030.14 C 1680.51 1064.59 1660.01 1103.37 1647.96 1138.54 C 1639.6 1136.57 1621.11 1133.08 1614.79 1128.56 C 1611.22 1120.47 1621.76 1112.61 1622.74 1104.08 C 1617.8 1096.57 1585.75 1113 1578.24 1115.18 C 1548.58 1125.51 1519.53 1137.82 1489.69 1147.62 C 1484.02 1149.48 1479.5 1151.18 1474.16 1153.91 C 1473.07 1146.87 1472.36 1144.88 1469.44 1138.59 C 1481.15 1136.61 1495.36 1129.73 1506.79 1125.5 C 1546.81 1110.72 1585.66 1092.97 1624.83 1076.13 C 1632.2 1072.96 1645.58 1067.81 1649.43 1060.9 C 1653.05 1054.41 1660.43 1044.59 1660.51 1037.23 L 1659.3 1035.76 C 1645.89 1035.65 1576.71 1070.36 1560.08 1075.18 C 1543.58 1079.95 1488.06 1060.32 1473.07 1065.03 C 1446.49 1073.39 1408.57 1094.25 1383.18 1105.87 C 1315.29 1136.95 1248.47 1171.89 1180.97 1203.39 C 1181.87 1199.03 1182.73 1198.9 1181.11 1195.97 C 1174.72 1196.74 1174.16 1197.83 1171.13 1192.28 C 1178.32 1187.94 1187.74 1184.08 1195.25 1180.05 C 1222.75 1165.3 1260.2 1150.82 1285.54 1133.54 C 1287.03 1120.98 1286.31 1090.58 1286.32 1077.02 L 1286.13 980.215 C 1285.89 957.423 1284.74 932.451 1286.1 909.668 z"/>
<path transform="translate(0,0)" fill="rgb(222,221,222)" d="M 1816.38 763.917 C 1812.85 774.315 1804.95 790.907 1800.07 801.059 C 1788.63 824.894 1776.6 855.255 1764.04 877.576 C 1760.6 883.697 1705.46 907.804 1696.39 912.174 L 1589.18 964.595 C 1564 976.822 1525.99 994.412 1502.77 1008.64 C 1498.53 1025.37 1496.82 1033.91 1477.91 1036.07 L 1476.36 1036.33 C 1463.35 1031.51 1453.57 1017.39 1461.25 1003.18 C 1471.28 984.629 1487.81 997.939 1496.01 994.269 C 1525.14 981.236 1553.74 965.361 1582.48 951.217 L 1691.8 897.421 C 1704.09 891.276 1717.48 886.049 1729.17 878.977 C 1734.8 875.569 1749.68 849.933 1747.68 844.009 C 1742.72 842.705 1684.69 872.092 1673.84 877.666 C 1602.25 914.423 1530.02 949.023 1456.91 982.632 C 1447.89 986.78 1432.47 994.311 1424.91 999.966 C 1422.32 1007.87 1420.77 1013.86 1413.82 1019.35 C 1398.5 1031.44 1376.25 1013.38 1380.27 995.928 C 1381.73 990.118 1386.52 984.75 1391.48 981.651 C 1402.1 975.007 1413.01 987.587 1423.32 983.234 C 1443.81 974.584 1463.38 964.01 1483.31 954.193 C 1499.45 946.242 1516.09 939.864 1531.77 930.975 C 1519.09 924.5 1500.97 915.728 1487.39 912.746 C 1470.37 917.84 1436.13 935.486 1418.95 943.729 C 1399.65 952.985 1371.26 964.997 1353 975.055 C 1352.78 997.084 1352.13 1019.11 1351.02 1041.11 C 1355.89 1050.24 1360.14 1053.7 1363.2 1064.38 C 1361.35 1070.23 1359.31 1076.81 1354.66 1080.97 C 1350.45 1084.75 1344.82 1086.56 1339.2 1085.93 C 1332.97 1085.22 1327.34 1081.92 1323.68 1076.83 C 1321.45 1073.76 1320 1070.09 1319.56 1066.33 C 1316.78 1047.82 1338.11 1049.64 1338.32 1031.86 C 1338.93 978.774 1337.23 925.506 1339 872.441 C 1339.56 855.462 1337.69 832.105 1339.9 815.805 C 1343.31 849.91 1340.96 891.374 1340 926.18 C 1339.02 962.276 1342.35 1006.85 1339.76 1041.73 C 1328.84 1049.91 1324.48 1051.43 1320.95 1064.26 C 1324.77 1079.42 1331.27 1084 1346.58 1083.51 C 1377.21 1063.9 1347.93 1052.84 1349.01 1036.49 C 1352.78 979.615 1349.65 923.231 1350.42 866.316 C 1350.6 853.988 1348.96 826.634 1352.43 815.863 C 1354.46 862.251 1351.76 912.496 1353.1 959.525 C 1366.56 955.098 1375.39 950.467 1388.23 944.745 C 1410.3 935.135 1432.13 924.991 1453.71 914.322 C 1462.14 910.225 1479.15 901.254 1487.03 898.277 C 1506.67 905.23 1530.93 920.027 1551.76 920.793 C 1554.92 920.909 1566.02 915.982 1569.25 914.42 C 1603.37 897.919 1637.11 880.403 1671.04 863.559 C 1688.86 854.824 1706.53 845.809 1724.06 836.518 C 1733.1 831.82 1741.6 827.625 1750.45 822.435 C 1764.39 814.265 1766.5 793.568 1775.37 786.193 C 1783.88 779.123 1805.4 770.243 1816.38 763.917 z"/>
<path transform="translate(0,0)" fill="url(#Gradient2)" d="M 438.245 1124.66 C 429.905 1127.16 408.848 1134.07 401.185 1134.6 C 396.273 1130.83 335.606 995.502 329.436 979.757 L 330.01 978.736 C 341.437 982.425 354.385 989.926 365.516 995.053 C 406.965 1014.14 448.879 1036.87 491.169 1053.6 C 513.144 1062.29 555.089 1039 578.914 1043.86 C 588.917 1046.25 623.495 1064.12 634.819 1069.76 C 695.505 1100.28 755.875 1131.43 815.916 1163.21 L 868.896 1190.41 C 872.058 1192.04 886.026 1198.83 888.347 1200.3 C 892.325 1202.52 896.266 1204.8 900.169 1207.14 C 899.39 1211.46 899.332 1215.36 896.074 1218.09 L 894.37 1219.61 C 890.314 1218.37 858.39 1201.36 852.698 1198.42 C 824.176 1183.66 795.493 1169.22 766.654 1155.09 C 749.8 1145.31 715.192 1129.52 696.684 1120.34 C 671.294 1107.57 645.684 1095.24 619.863 1083.36 C 610.406 1078.97 592.067 1069.68 582.779 1066.65 C 554.27 1057.35 519.138 1081.27 488.913 1073.93 C 474.084 1070.33 400.258 1032.93 391.111 1034.09 L 390.14 1036.22 C 390.403 1043.83 396.972 1053.51 400.965 1060.44 C 443.132 1080.61 484.791 1101.8 528.144 1119.6 C 541.931 1125.26 562.233 1135.02 576.019 1138.78 C 570.538 1143.92 570.951 1149.98 572.345 1156.99 L 565.96 1154.26 C 559.676 1150.71 517.918 1135.58 508.24 1131.82 C 489.806 1123.77 448.212 1104.77 430.2 1101.74 L 429.429 1102.25 C 433.368 1110.75 436.8 1115.5 438.245 1124.66 z"/>
<path transform="translate(0,0)" fill="rgb(236,236,236)" d="M 888.347 1200.3 C 892.325 1202.52 896.266 1204.8 900.169 1207.14 C 899.39 1211.46 899.332 1215.36 896.074 1218.09 C 887.809 1214.43 883.811 1209.15 888.347 1200.3 z"/>
<path transform="translate(0,0)" fill="url(#Gradient1)" d="M 161.564 608.866 C 169.792 610.719 188.128 620.959 196.995 625.459 L 250.549 652.534 C 371.844 714.001 492.775 776.181 613.338 839.07 L 781.513 925.735 L 823.284 947.607 C 830.161 951.182 842.091 956.816 847.993 960.985 C 852.271 971.915 848.979 1065.4 850.059 1086.72 C 868.063 1103.34 871.684 1118.15 848.094 1131.76 C 831.329 1134.7 823.146 1122.75 818.921 1108.35 C 823.804 1096.92 826.719 1093.93 834.755 1084.14 C 835.503 1064.93 834.053 1042.67 834.127 1023.13 C 834.187 1007.66 835.012 986.66 832.968 971.856 C 781.228 946.39 727.312 917.452 675.981 890.794 L 469.933 784.839 L 312.541 703.783 C 268.346 681.403 224.005 659.17 179.969 636.449 C 166.615 629.559 165.886 623.214 161.564 608.866 z"/>
<path transform="translate(0,0)" fill="rgb(236,236,236)" d="M 1207.05 1343.81 C 1214.51 1348.63 1256.13 1402.82 1265.38 1414.26 C 1284.54 1438.15 1304.05 1461.74 1323.92 1485.04 C 1315.69 1491.34 1290.2 1503.54 1279.19 1509.5 C 1274.94 1512.16 1269.86 1514.82 1265.39 1517.21 C 1245.22 1527.97 1225.43 1539.68 1205.21 1550.3 C 1206.82 1481.6 1205.17 1412.29 1207.05 1343.81 z M 1261.52 1486.72 C 1269.75 1482.62 1273.73 1480.76 1281.03 1475.36 C 1275.69 1467.46 1269.44 1460.57 1262.95 1453.59 C 1250.06 1439.74 1238.78 1424.41 1225.73 1410.75 C 1223.74 1408.66 1221.66 1408.75 1219.04 1408.41 C 1218.57 1420.15 1217 1502.64 1220.12 1506.05 C 1228.57 1506.09 1252.65 1491.85 1261.52 1486.72 z"/>
<path transform="translate(0,0)" fill="rgb(222,221,222)" d="M 1872.96 633.111 L 1873.59 634.412 C 1871.5 640.968 1868.57 650.036 1862.86 653.955 C 1853.27 660.535 1841.08 666.481 1830.73 671.911 C 1806.94 684.325 1783.05 696.558 1759.07 708.608 C 1671.57 753.311 1584.96 799.731 1496.93 843.428 C 1471.72 855.943 1441.65 869.446 1418.14 884.494 C 1417.61 893.881 1417.22 901.101 1411.28 908.827 C 1401.12 922.055 1387.44 918.397 1376.6 908.822 C 1371.29 900.973 1368.53 894.317 1371.06 884.664 C 1372.69 878.198 1377.01 872.743 1382.93 869.678 C 1393.18 864.498 1400.47 868.62 1410.87 871.848 C 1423.6 866.668 1445.46 854.449 1458.21 847.812 C 1485.17 833.602 1512.29 819.691 1539.56 806.082 L 1872.96 633.111 z M 1380.39 886.197 C 1380.08 901.211 1381.62 906.989 1398.91 906.068 C 1403.66 903.823 1404.22 902.923 1408.08 899.131 C 1408.17 885.289 1405.43 878.325 1389.53 878.782 L 1380.39 886.197 z"/>
<path transform="translate(0,0)" fill="rgb(236,236,236)" d="M 198.561 684.29 C 202.453 685.499 218.863 694.59 223.785 697.187 L 270.154 721.15 L 487.279 834.786 C 502.485 842.907 513.369 828.707 527.885 837.075 C 533.465 840.292 538.801 846.27 540.027 852.674 C 541.529 860.521 539.882 865.231 535.733 871.612 C 526.92 880.834 516.212 885.612 504.036 877.576 C 494.941 871.573 493.171 865.072 491.448 854.961 C 428.899 824.637 365.655 789.618 303.51 757.797 L 241.155 725.981 C 221.019 715.771 199.691 710.632 198.561 684.29 z"/>
<path transform="translate(0,0)" fill="rgb(222,221,222)" d="M 1840.15 706.988 L 1841.22 708.124 C 1840.23 726.002 1816.95 734.831 1803.44 741.7 C 1784.26 751.537 1764.98 761.188 1745.61 770.649 C 1741.27 772.758 1726.15 779.708 1724.51 782.782 C 1718.22 794.564 1722.37 808.842 1706.04 814.836 C 1695.78 818.605 1689.94 815.09 1680.1 810.873 C 1668.8 813.405 1652.26 823.303 1641.3 828.608 C 1617.09 840.33 1593.2 853.254 1568.51 863.989 C 1565.5 884.582 1561.71 891.579 1540.42 895.966 C 1534.16 894.149 1531.37 892.314 1526.55 888.05 C 1516.38 875.814 1514.64 859.258 1530.33 849.777 C 1540.89 843.396 1550.81 849.576 1561.47 853.052 C 1581.24 844.94 1606.82 829.795 1627.08 820.491 C 1636.07 816.36 1667.24 801.619 1673.29 796.902 C 1676.41 763.222 1687.89 767.384 1712.8 770.554 C 1714.9 770.821 1736.59 759.493 1741.18 757.168 C 1761.21 747.133 1781.18 736.959 1801.08 726.645 C 1811.86 721.02 1829.34 711.033 1840.15 706.988 z M 1705.42 805.955 C 1711.17 797.517 1715.43 786.742 1705 780.219 C 1699.49 776.778 1693.69 777.896 1687.56 778.301 C 1675.59 795.022 1685.07 808.744 1705.42 805.955 z M 1546.87 884.952 C 1559.72 883.302 1562.85 859.168 1542.07 856.754 L 1538.38 856.324 C 1518.55 866.366 1526.29 883.286 1546.87 884.952 z"/>
<path transform="translate(0,0)" fill="rgb(236,236,236)" d="M 1157.13 901.232 C 1174.07 899.239 1186.86 910.103 1184.69 927.964 C 1183.46 938.057 1177.21 943.035 1169.57 948.59 C 1167.88 971.772 1170.53 993.865 1170.28 1016.82 C 1169.98 1045.2 1171.76 1075.08 1170.12 1103.25 C 1176.87 1108.97 1182.39 1113.69 1184.88 1122.57 C 1189.41 1138.72 1177.74 1149.32 1163.27 1153.09 C 1147.85 1152.2 1133.28 1140.59 1137.21 1123.94 C 1139.91 1112.53 1148.42 1107.99 1157.58 1102.46 C 1155.92 1079.56 1156.69 1050.61 1156.8 1027.38 C 1156.79 1001.39 1156.5 975.4 1155.93 949.415 C 1130.23 937.236 1130.95 912.501 1157.13 901.232 z M 1165.48 937.28 C 1182.44 934.74 1179.72 909.954 1160.67 912.361 C 1140.32 914.517 1142.36 940.451 1165.48 937.28 z M 1165.71 1141.22 C 1183.06 1132.48 1177.86 1113.64 1158.38 1115.44 C 1153.34 1117.21 1150.17 1118.29 1147.85 1123.51 C 1146.6 1126.27 1146.56 1129.42 1147.74 1132.21 C 1150.71 1139.34 1155.9 1141.17 1163.01 1141.2 L 1164.67 1141.23 C 1165.02 1141.23 1165.36 1141.22 1165.71 1141.22 z"/>
<path transform="translate(0,0)" fill="rgb(236,236,236)" d="M 1232.8 882.215 C 1248.99 884.763 1253.75 893.594 1257.64 908.253 C 1250.29 930.145 1238.8 923.057 1239.01 948.853 C 1239.4 995.526 1238.09 1042.28 1239.15 1088.97 C 1247.36 1094.53 1248.85 1096.47 1254.04 1104.44 C 1256.18 1122.32 1249.21 1135.18 1230.52 1137.75 C 1215.48 1135.27 1208.78 1129.48 1206.88 1114.05 C 1204.77 1096.98 1224.27 1094.18 1225.27 1083.81 C 1226.34 1065.44 1226.47 1046.32 1226.18 1027.88 C 1225.72 998.391 1229.55 962.47 1225.92 933.477 C 1215.59 922.838 1200.84 915.436 1212.06 895.367 C 1216.73 886.993 1223.78 884.306 1232.8 882.215 z M 1238.63 919.899 C 1246.86 914.334 1245.64 913.387 1247.97 903.836 C 1240.06 894.973 1239.66 893.786 1227.35 895.377 C 1210.47 903.244 1216.98 921.192 1238.63 919.899 z M 1217.72 1106.21 C 1217.38 1121.61 1217.63 1126.71 1235.48 1126.4 C 1251.6 1115.39 1245.83 1099.38 1228.04 1100.03 C 1223.53 1102.3 1221.72 1103.2 1217.72 1106.21 z"/>
<path transform="translate(0,0)" fill="rgb(236,236,236)" d="M 829.268 1360.65 C 829.382 1360.9 829.495 1361.15 829.609 1361.4 C 838.292 1395.28 814.824 1406.66 797.063 1429.08 C 788.485 1439.91 765.923 1460.55 761.525 1471.23 C 762.808 1479.42 808.505 1501.93 818.897 1502.19 C 824.416 1500.2 826.471 1496.56 828.553 1491.55 C 828.013 1509.52 828.066 1524 828.909 1541.93 L 817.344 1535.44 C 799.655 1525.21 781.144 1515.17 763.149 1505.46 C 751.924 1499.4 740.274 1494.56 729.013 1488.09 C 729.671 1481.07 757.524 1448.97 764.259 1440.66 L 817.154 1374.69 C 821.136 1369.8 825.711 1365.74 829.268 1360.65 z"/>
<path transform="translate(0,0)" fill="rgb(222,221,222)" d="M 886.703 993.149 C 887.295 993.111 887.887 993.073 888.479 993.034 C 896.094 992.616 903.549 995.333 909.108 1000.55 C 926.025 1016.34 911.914 1031.06 900.303 1042.79 C 897.531 1067.76 898.777 1103.9 899.15 1129.68 C 901.48 1133.49 908.969 1141.06 912.454 1145.01 C 915.744 1163.37 912.001 1169.35 893.865 1176 C 881.064 1175.52 868.697 1165.71 870.716 1151.94 C 872.305 1141.09 877.987 1137.27 886.014 1131.22 C 887.104 1099.41 886.028 1074.27 886.111 1043.45 C 873.079 1035 860.202 1022.58 869.101 1004.42 C 872.59 997.298 879.476 995.176 886.703 993.149 z M 880.249 1026.91 C 886.134 1028.7 888.381 1029.48 894.675 1030 C 901.76 1027.06 908.213 1021.37 904.428 1012.83 C 902.769 1009.12 899.607 1006.29 895.735 1005.05 C 893.839 1004.46 888.536 1005.03 886.409 1005.22 C 874.671 1011.36 875.344 1015.63 880.249 1026.91 z"/>
<path transform="translate(0,0)" fill="rgb(222,221,222)" d="M 301.168 918.881 C 305.794 919.288 340.216 938.142 346.883 941.344 C 376.337 955.492 405.711 969.742 434.937 984.383 C 445.712 989.706 456.875 994.271 467.779 999.298 C 473.908 1002.12 468.007 1010.38 465.906 1013.62 C 465.161 1014.28 463.429 1015.32 462.523 1015.9 C 453.442 1016.96 344.699 958.73 327.382 952.336 C 310.374 946.057 306.084 935.549 301.168 918.881 z"/>
<path transform="translate(0,0)" fill="rgb(183,182,184)" d="M 1741.95 925.193 L 1742.58 926.373 C 1740.1 932.264 1734.54 945.996 1729.72 948.874 C 1719.17 955.173 1703.84 961.806 1692.74 967.014 L 1627.45 998.288 C 1619.94 1001.92 1587.63 1018.5 1582.49 1016.71 C 1580.23 1012.59 1579.53 1011.78 1578.66 1007.29 C 1580.37 1002.12 1594.76 997.391 1600.38 994.738 L 1691.37 951.129 C 1700.78 946.619 1735.18 930.757 1741.95 925.193 z"/>
<path transform="translate(0,0)" fill="rgb(236,236,236)" d="M 1285.36 897.21 C 1269.17 887.422 1256.93 869.553 1272.9 853.155 C 1277.1 848.788 1282.89 846.306 1288.94 846.273 C 1298.26 846.258 1304.34 851.183 1310.4 857.475 C 1312.72 865.249 1313.04 868.504 1313.85 876.555 C 1309.26 885.474 1304.71 887.925 1300.07 895.559 L 1298.59 897.117 C 1294.44 895.891 1293.81 895.374 1289.91 896.609 C 1286.29 900.213 1288.19 904.543 1286.1 909.668 C 1285.97 905.408 1285.69 901.461 1285.36 897.21 z M 1297.58 882.736 C 1312.05 866.616 1301.05 856.741 1282.77 858.109 C 1266.03 871.841 1277.27 886.425 1297.58 882.736 z"/>
<path transform="translate(0,0)" fill="rgb(222,221,222)" d="M 576.019 1138.78 C 579.742 1136.67 583.493 1134.47 587.621 1133.36 C 605.782 1128.48 624.712 1141.49 618.256 1161.62 C 611.739 1181.94 582.831 1184.43 574.919 1163.82 C 574.182 1161.9 573.247 1158.73 572.345 1156.99 C 570.951 1149.98 570.538 1143.92 576.019 1138.78 z"/>
<path transform="translate(0,0)" fill="rgb(222,221,222)" d="M 1459.44 1173.09 C 1458.65 1173.31 1457.86 1173.52 1457.06 1173.72 C 1443.68 1176.95 1432.14 1169.41 1429.9 1155.79 C 1428.89 1149.52 1430.48 1143.1 1434.31 1138.03 C 1444.8 1123.91 1458.02 1130.52 1469.44 1138.59 C 1472.36 1144.88 1473.07 1146.87 1474.16 1153.91 C 1470.04 1162.52 1467.89 1167.8 1459.44 1173.09 z"/>
<path transform="translate(0,0)" fill="rgb(236,236,236)" d="M 1171.13 1192.28 C 1174.16 1197.83 1174.72 1196.74 1181.11 1195.97 C 1182.73 1198.9 1181.87 1199.03 1180.97 1203.39 C 1172.28 1207.51 1157.87 1218.13 1149.28 1214.98 C 1146.41 1212.54 1145.72 1208.78 1144.54 1205.08 C 1151.93 1200.66 1162.94 1196.17 1171.13 1192.28 z"/>
<path transform="translate(0,0)" fill="rgb(183,182,184)" fill-opacity="0.0117647" d="M 1054.88 1510.26 C 1053.46 1502.88 1053 1417.6 1053.85 1408.5 C 1054.48 1414.78 1054.58 1418.93 1054.6 1425.24 C 1055.77 1419.72 1054.12 1417.21 1056.4 1412.3 L 1057.9 1412.05 C 1060.05 1422.09 1057.63 1478.28 1058.12 1491.52 C 1058.27 1495.59 1055.26 1504.62 1054.88 1510.26 z"/>
<path transform="translate(0,0)" fill="rgb(183,182,184)" fill-opacity="0.0156863" d="M 875.941 1507.07 C 880.21 1499.81 874.838 1466.27 878.493 1459.47 L 879.899 1459.16 C 881.932 1470.41 879.247 1513.08 878.215 1526.42 L 878.045 1524.32 C 877.459 1528.01 877.197 1530.42 876.941 1534.14 C 875.222 1528.07 875.773 1513.86 875.941 1507.07 z"/>
</svg>