<?xml version="1.0" encoding="utf-8" ?><svg xmlns="http://www.w3.org/2000/svg" xmlns:xlink="http://www.w3.org/1999/xlink" width="1080" height="1080" viewBox="0 0 1080 1080"><path d="M0 0L1080 0L1080 1080L0 1080L0 0Z"/><path fill="#ECECEC" d="M47.6575 234.331C76.1415 248.178 105.802 264.138 134.14 278.574L336.626 381.924C376.555 402.202 416.353 422.739 456.017 443.532C467.494 449.525 495.815 462.037 503.786 469.781C507.789 473.67 520.632 487.464 522.179 492.471C523.857 497.905 522.882 529.921 522.888 538.332C522.922 587.953 521.886 637.676 522.669 687.28C527.469 691.291 533.77 694.575 532.716 702.488C532.006 707.817 528.23 710.543 524.253 713.603C523.207 725.905 523.827 753.664 524.252 766.667C529.023 769.217 531.133 770.339 534.11 774.949C534.827 783.354 534.1 795.042 534.088 803.895C534.027 823.828 534.129 843.762 534.393 863.693C524.934 857.978 512.795 851.622 502.956 846.232C484.814 836.21 466.573 826.368 448.237 816.706C448.45 808.13 448.751 799.538 448.671 790.959C448.559 778.808 446.581 709.293 449.099 702.486C451.151 696.939 466.565 679.299 471.252 673.289C471.821 682.285 471.776 689.882 471.559 698.857C468.067 702.268 464.63 704.636 461.536 708.603C460.784 719.626 461.281 741.032 461.32 752.572C461.373 768.601 460.648 790.778 461.694 806.268C467.51 811.077 482.565 819.103 490.023 820.903C490.881 813.124 490.564 799.951 490.547 791.893L490.255 737.758L490.524 558.479C490.614 537.83 489 514.144 490.616 493.517C490.94 489.383 496.947 481.338 498.648 475.674C495.957 473.415 493.383 472.069 490.344 470.327C460.246 454.16 427.707 438.475 397.2 422.888L219.057 331.976L134.004 288.712C120.504 281.76 95.903 268.301 82.2272 262.926L81.5399 263.324C81.4681 268.119 92.9057 289.676 95.3011 295.716C96.2801 298.185 98.8629 301.503 101.354 302.969C109.172 307.569 117.812 311.749 125.916 315.883L173.902 340.322L213.551 360.658C218.996 363.445 228.109 368.811 233.688 370.422C235.156 365.403 237.019 359.622 242.307 357.749C256.543 352.706 257.998 367.81 266.629 373.054C270.341 375.31 277.018 378.074 281.021 380.073L311.456 395.537C330.396 405.075 351.691 417.114 370.536 425.735C385.238 421.015 390.726 424.133 393.268 439.615C398.757 443.118 409.424 448.123 415.537 451.278L458.326 473.638C462.978 470.445 467.395 466.975 473.233 469.663C482.611 474.216 482.916 488.386 472.122 491.694C458.952 495.73 459.349 483.345 451.49 479.186C430.766 468.218 409.423 458.341 388.899 446.98C373.505 454.08 366.893 449.564 365.28 433.175C361.419 430.739 354.075 427.149 349.861 424.944C336.916 418.173 323.75 411.725 310.728 405.052C299.225 399.027 287.678 393.086 276.087 387.231C271.426 384.883 263.101 380.431 258.341 379.006C256.168 380.434 253.468 382.55 251.327 384.141C247.319 384.321 243.294 384.214 239.559 382.584C219.375 373.768 199.537 363.025 179.845 353.123L114.164 319.7C110.158 317.659 79.3194 302.739 78.4469 300.878C68.3132 279.259 57.2842 256.258 47.6575 234.331Z"/><path d="M504.041 482.886C508.741 484.044 515.235 492.951 515.617 497.692C516.209 505.028 515.907 512.911 515.887 520.308L515.871 564.747L516.068 657.996C516.034 667.835 516.505 677.942 516.216 687.701C503.97 698.697 503.85 705.232 517.774 714.86C518.101 731.878 517.723 749.912 517.862 767.121C511.387 772.196 505.67 779.04 512.452 787.628C516.118 792.271 521.231 792.719 526.817 793.077C527.594 806.137 527.473 818.964 527.393 832.031C527.361 835.104 527.19 838.141 527.042 841.21C519.423 839.191 507.013 831.233 499.776 827.142C497.809 826.03 497.306 824.635 497.148 822.52C496.574 814.803 496.654 806.662 496.573 798.913C496.317 782.472 496.327 766.028 496.602 749.587C496.946 720.259 496.492 689.674 496.418 660.114L496.568 544.189L496.703 513.523C496.748 499.714 494.761 494.183 504.041 482.886Z"/><path d="M518.919 773.149C519.855 773.12 523.838 772.946 524.488 773.203C533.653 776.837 531.447 783.373 524.418 786.945C512.935 788.161 509.017 777.593 518.919 773.149Z"/><path d="M517.614 694.045C528.658 692.631 531.609 705.901 521.417 707.598C509.381 707.628 507.921 698.613 517.614 694.045Z"/><path d="M377.274 430.061C380.885 428.939 384.728 430.921 385.909 434.513C387.089 438.105 385.17 441.98 381.598 443.218C379.235 444.038 376.614 443.52 374.74 441.862C372.867 440.205 372.032 437.666 372.558 435.221C373.083 432.775 374.886 430.803 377.274 430.061Z"/><path d="M246.001 363.985C249.599 363.319 253.066 365.659 253.795 369.244C254.524 372.829 252.246 376.338 248.675 377.13C246.307 377.655 243.841 376.862 242.223 375.055C240.606 373.249 240.09 370.71 240.873 368.415C241.656 366.12 243.617 364.426 246.001 363.985Z"/><path fill="#ECECEC" d="M582.643 466.291C588.613 461.922 608.356 452.839 615.753 449.104L684.31 414.009L890.54 307.894L970.064 267.281C989.498 257.454 1012.76 246.414 1031.23 235.275C1029.68 239.287 1027.55 243.333 1025.59 247.219C1016.87 264.572 1009.66 284.32 1000.14 301.045C999.017 303.013 968.666 317.897 964.761 319.873L893.298 356.13C880.87 362.385 868.307 368.645 855.839 374.834C851.013 377.23 849.868 384.612 844.229 387.22C839.479 389.417 835.36 387.308 830.562 385.699C823.282 388.615 803.688 399.072 796.185 403.03C779.461 411.854 760.463 420.298 744.126 429.201C741.835 433.546 740.892 438.669 736.104 441.084C730.532 443.894 724.024 440.336 721.982 434.748C720.981 432.012 721.122 428.988 722.372 426.356C724.491 421.877 727.893 420.373 732.164 418.778C735.435 420.475 737.911 421.886 741.444 422.973C748.281 420.493 768.85 409.433 775.963 405.811L806.255 390.27C813.001 386.818 820.719 383.107 827.135 379.2C827.503 374.472 827.25 371.447 830.233 367.297C831.836 365.029 834.313 363.535 837.066 363.176C842.846 362.469 846.479 365.841 850.545 369.163C857.532 367.045 870.564 359.757 877.684 356.044L914.051 337.409C928.937 330.023 943.764 322.519 958.531 314.9C966.025 311.067 982.663 304.176 985.623 296.804C987.912 291.102 1000.84 267.542 999.516 262.944C997.362 262.202 993.958 264 991.983 264.966C943.422 289.281 895.027 313.927 846.802 338.902C813.359 355.754 780.014 372.8 746.768 390.037C736.437 395.408 726.026 400.597 715.658 405.891C712.114 407.701 712.345 410.679 712.215 414.109C711.087 416.037 712.411 485.081 711.72 493.708C711.59 495.333 711.87 502.006 711.833 503.674C711.82 504.237 708.509 506.56 709.456 508.501C709.981 509.576 711.409 511.962 711.427 512.57C711.626 519.608 711.095 524.003 711.972 531.244C712.329 535.482 711.127 542.045 712.324 546.184C713.968 551.322 718.168 553.821 717.776 559.721C717.35 566.12 712.658 570.619 706.002 569.753C702.819 569.327 699.946 567.626 698.042 565.04C692.054 556.85 699.643 550.572 706.108 546.615C706.552 528.224 706.015 507.551 706.049 488.989L706.75 426.323C706.758 423.484 706.92 415.408 705.03 413.508C700.427 413.21 684.28 422.254 679.161 424.811L629.085 450.358C620.853 454.545 612.596 458.683 604.315 462.772C600.158 464.841 594.099 467.611 590.348 470.122C587.737 474.375 588.575 513.115 588.573 521.176L588.527 606.142L588.153 748.535C588.178 769.662 588.224 790.844 588.449 811.971C588.477 814.665 588.357 819.162 590.035 821.13C593.282 820.762 610.885 810.912 614.501 808.735C614.851 803.898 614.565 797.297 614.528 792.348L614.508 766.165C614.515 740.411 614.918 713.129 614.3 687.495C611.943 686.203 609.467 684.979 607.473 683.068C600.071 675.976 603.705 664.524 614.144 663.828C620.202 663.424 625.735 668.797 626.149 674.618C626.938 678.507 622.337 681.702 621.72 684.49C619.737 693.444 621.093 706.027 621.061 715.081C620.936 750.724 621.953 786.403 621.088 822.014C618.775 823.63 615.077 825.653 612.543 826.961C590.843 838.171 569.53 850.465 547.895 861.733C549.853 839.164 548.645 812.729 548.968 789.753C549.503 722.859 549.495 655.962 548.943 589.068C549.198 551.205 549.211 513.34 548.981 475.477C548.885 466.237 549.429 441.168 548.333 433.947L548.159 433.802C541.385 428.011 514.963 415.237 505.832 412.282C498.715 409.978 483.199 407.534 475.142 405.747C484.991 400.009 496.292 395.285 506.429 389.971C510.977 387.587 516.355 385.031 521.138 383.285C527.324 385.813 544.36 395.241 550.797 398.648C571.197 409.579 591.691 420.334 612.276 430.912L608.315 436.961C589.227 427.268 570.237 417.382 551.348 407.306C543.414 403.149 529.116 395.086 521.256 392.036C517.586 393.384 500.979 400.88 498.922 403.435C503.194 405.711 511.602 405.955 515.137 407.774C526.219 413.475 546.02 421.546 555.263 429.259C555.769 441.509 555.41 455.818 555.379 468.189L555.41 530.824L555.305 768.453C555.381 790.945 554.74 814.775 556.512 837.138C556.77 840.389 567.288 834.511 568.461 833.849C573.018 831.281 577.598 828.86 582.04 826.03C582.489 815.699 582.226 804.348 582.201 793.913L582.175 742.202L582.166 555.66L582.174 500.049C582.171 489.78 581.826 476.259 582.643 466.291Z"/><path d="M835.061 368.196C839.085 367.853 842.559 367.575 845.344 371.014C849.245 375.833 846.055 379.723 842.397 382.78C841.943 382.801 841.49 382.812 841.036 382.812C831.914 382.791 827.038 374.799 835.061 368.196Z"/><path fill="#DCDBDD" d="M123.202 401.7C136.612 409.052 155.737 418.899 170.351 423.826C171.321 424.153 179.416 423.871 181.176 423.847C185.681 426.983 187.587 428.958 189.26 434.186C188.595 437.657 187.957 441.133 187.346 444.613C199.842 451.798 216.105 459.317 229.108 466.378C238.027 471.221 258.101 482.321 267.129 486.046C276.014 483.528 298.343 473.718 307.881 469.813C317.129 475.153 329.876 481.211 339.618 486.2L387.203 510.86C395.495 515.115 414.053 524.274 421.351 529.295L421.654 561.609C427.379 567.919 435.783 577.011 424.162 583.981C419.758 586.622 415.931 585.823 411.295 584.422C405.802 579.315 405.687 576.81 406.117 569.83C408.385 566.453 411.252 564.453 414.442 562.032C414.565 553.967 414.597 543.53 414.192 535.603C410.442 532.325 400.444 527.437 395.634 524.916L365.446 509.206L328.777 490.295C322.49 487.08 312.992 481.941 306.669 479.63C302.461 481.024 281.826 489.209 278.387 491.263C279.398 493.975 304.167 506.016 308.535 508.28L350.889 530.65C358.416 534.652 366.985 538.973 374.092 543.534C378.059 541.664 381.26 539.988 385.752 540.111C389.397 540.2 392.855 541.742 395.357 544.394C397.614 546.821 398.787 550.061 398.606 553.371C398.398 557.847 396.798 560.621 393.686 563.546C385.866 568.989 377.704 567.669 372.91 559.178C371.549 556.767 370.886 553.818 370.146 551.148C366.465 548.355 357.81 544.082 353.359 541.745L321.155 524.955C285.232 505.625 249.187 486.52 213.023 467.642C203.92 462.946 171.775 446.723 165.014 440.273L164.976 430.953C161.536 428.647 150.643 423.284 146.697 421.483C151.169 430.398 158.544 447.376 164.31 454.675C166.561 457.525 185.931 466.464 190.878 469.025L244.582 496.589C260.031 504.367 276.646 512.384 291.508 521.059C298.604 518.888 308.665 516.739 311.486 526.431C312.511 529.839 312.082 533.519 310.303 536.601C307.26 541.762 300.235 545.62 294.631 542.096C289.625 538.949 288.563 534.477 287.346 529.203C282.812 525.261 262.713 515.881 255.96 512.368C226.373 496.991 196.503 482.128 166.852 466.874C161.791 464.27 150.808 461.095 147.944 456.566C142.224 447.521 138.455 436.58 134.024 426.857C130.162 418.382 126.208 410.541 123.202 401.7Z"/><path d="M382.192 546.406C392.599 546.152 397.001 554.209 387.737 559.882C383.936 560.374 381.114 560.605 378.928 556.98C376.282 552.595 378.31 548.727 382.192 546.406Z"/><path fill="#DCDBDD" d="M784.634 470.893C790.95 474.401 812.966 484.813 819.765 482.942C825.101 481.474 836.069 475.758 841.628 472.974L876.168 455.595C886.603 450.468 896.983 445.232 907.307 439.888C912.171 437.384 919.291 434.138 923.546 431.107C933.306 424.155 931.233 411.012 944.973 407.125C947.222 406.488 953.887 402.771 956.081 401.363L956.744 400.945C956.875 400.859 957.006 400.773 957.137 400.687C954.494 408.058 932.489 457.642 929.616 460.823C927.59 463.066 922.914 464.839 920.214 466.112L839.107 505.285L813.08 518.167C807.344 520.952 794.279 525.924 791.406 531.533C789.674 534.915 789.82 540.362 785.086 542.263C779.194 544.808 772.86 542.811 770.293 536.808C769.024 533.914 769.05 530.617 770.366 527.744C772.129 523.837 775.111 522.18 778.823 520.505C781.476 521.261 784.256 522.099 786.913 522.79C791.435 521.399 800.257 516.649 804.891 514.316L837.793 497.791C862.428 485.687 887.236 473.92 911.634 461.344C915.343 459.431 922.144 446.352 922.396 442.461L921.805 441.897C911.943 445.005 895.652 453.481 885.812 458.373L829.857 486.287C805.157 498.497 779.795 509.222 755.258 521.749C753.468 522.663 751.509 524.17 750.702 526.038C747.591 533.238 746.976 535.27 739.33 537.762C734.854 536.019 731.005 534.077 728.848 529.363C727.666 526.829 727.633 523.909 728.755 521.349C730.516 517.357 734.137 515.28 738.073 513.919C738.689 513.702 739.311 513.502 739.938 513.32C741.956 514.536 745.129 516.582 747.173 517.51C751.448 516.222 805.281 490.274 806.818 488.734C805.686 485.915 794.504 481.851 791.411 480.511C786.432 478.354 783.247 478.42 778.357 480.377C771.568 483.096 714.611 509.907 713.615 511.523C711.23 515.397 712.66 526.296 711.972 531.244C711.095 524.003 711.626 519.608 711.427 512.57C711.409 511.962 709.981 509.576 709.456 508.501C708.509 506.56 711.82 504.237 711.833 503.674C711.87 502.006 711.59 495.333 711.72 493.708C712.411 485.081 711.087 416.037 712.215 414.109C712.727 439.039 712.954 464.007 712.554 488.956C712.477 493.769 712.664 498.926 713.047 503.714C719.138 502.33 733.829 495.431 740.18 492.415C753.662 486.016 771.886 478.403 784.634 470.893Z"/><defs><linearGradient id="gradient_0" gradientUnits="userSpaceOnUse" x1="254.34982" y1="565.54004" x2="285.77975" y2="349.37164"><stop offset="0" stop-color="#CACBCB"/><stop offset="1" stop-color="white"/></linearGradient></defs><path fill="url(#gradient_0)" d="M85.5908 318.224C102.895 327.414 121.137 336.303 138.664 345.186L224.009 388.821L447.488 504.338C448.819 524.763 447.265 549.327 447.811 570.223C457.196 579.257 459.722 586.957 446.711 594.308C442.354 594.636 441.111 594.159 437.61 591.521C426.597 583.223 434.68 576.9 440.25 569.505C440.744 560.775 439.918 548.272 439.884 539.154C439.857 531.695 440.61 516.881 439.179 510.636C437.008 507.873 382.189 480.264 376.618 477.38L182.819 377.52C153.567 362.517 124.112 347.811 94.8921 332.732C87.8793 329.113 87.8355 325.669 85.5908 318.224Z"/><defs><linearGradient id="gradient_1" gradientUnits="userSpaceOnUse" x1="198.42583" y1="582.21045" x2="304.54507" y2="545.51715"><stop offset="0" stop-color="#A4A3A4"/><stop offset="1" stop-color="#C9C8C9"/></linearGradient></defs><path fill="url(#gradient_1)" d="M173.914 512.585C186.248 519.886 252.127 552.613 262.656 554.453C267.863 555.363 274.179 552.899 279.398 552.168C282.161 552.412 285.786 551.689 287.749 551.991C289.61 555.003 290.793 555.506 293.701 557.249L293.9 557.898C291.031 558.469 288.725 558.57 286.612 560.54C278.166 562.366 269.475 563.179 261.486 564.902C247.988 560.088 233.973 552.877 220.556 547.618C214.836 545.375 209.601 542.756 203.586 541.24C205.665 546.444 207.588 552.714 211.67 556.704C215.474 560.423 257.428 579.082 264.967 582.31L289.476 592.628C293.464 594.304 299.147 596.986 303.074 598.273C308.137 596.087 314.275 593.066 319.676 595.52C333.502 601.803 322.851 625.015 309.014 617.448C304.883 615.189 303.248 611.15 301.416 607.033C295.644 604.055 279.638 598.388 272.746 595.788C258.657 590.472 240.059 581.215 226.239 577.161C226.435 580.637 229.928 586.855 231.581 590.093C224.622 592.061 217.682 594.099 210.763 596.205C209.225 592.452 207.677 588.506 205.984 584.839C198.231 569.373 191.215 553.011 184.284 537.153C180.56 528.634 176.494 521.61 173.914 512.585Z"/><path fill="#AAAAAB" d="M205.984 584.839C209.027 584.594 209.566 584.896 212.261 586.321C213.614 585.181 214.977 584.053 216.348 582.937C218.473 581.203 222.511 577.467 225.052 577.724L225.33 577.118L226.239 577.161C226.435 580.637 229.928 586.855 231.581 590.093C224.622 592.061 217.682 594.099 210.763 596.205C209.225 592.452 207.677 588.506 205.984 584.839Z"/><path fill="#ECECEC" d="M636.039 705.392C638.464 707.303 651.419 724.087 654.306 727.586C668.809 745.166 682.824 763.471 697.847 780.622C692.241 784.24 682.036 789.207 675.828 792.45L635.503 814.615C636.224 796.698 635.699 778.861 635.97 760.971C636.253 742.305 636.523 724.076 636.039 705.392Z"/><path d="M642.557 739.225C647.441 740.433 655.482 751.841 659.335 756.272C664.803 762.559 671.226 769.358 676.111 775.965C672.41 778.065 668.663 780.085 664.874 782.023C660.485 784.514 647.867 791.927 643.557 792.272L642.9 791.671C641.653 785.006 641.841 747.01 642.557 739.225Z"/><defs><linearGradient id="gradient_2" gradientUnits="userSpaceOnUse" x1="815.62537" y1="587.23859" x2="630.63861" y2="537.492"><stop offset="0" stop-color="#B4B4B5"/><stop offset="1" stop-color="#EAE9EA"/></linearGradient></defs><path fill="url(#gradient_2)" d="M678.054 470.681L676.839 469.822C672.501 466.72 668.144 462.881 667.559 457.351C665.988 442.479 689.941 438.706 691.933 454.151C692.77 460.636 688.441 465.459 684.502 470.154C684.075 487.381 684.716 507.981 684.768 525.512C684.757 540.305 684.877 555.098 685.128 569.889C685.199 576.868 684.939 583.461 685.214 590.468L685.776 590.988C689.925 591.221 708.515 581.184 713.381 578.821L753.637 559.554C757.716 557.589 772.217 550.205 776.007 549.58C786.618 547.83 811.044 558.446 822.003 555.641L822.076 556.471L821.401 557.746L821.999 558.559C823.283 560.336 823.308 560.512 823.202 562.7C824.739 562.789 824.855 562.48 826.378 561.754L828.045 561.908C826.808 562.521 823.214 564.282 822.02 564.406C810.453 566.727 786.482 555.772 776.18 558.896C764.366 562.479 744.487 573.092 733.081 578.392C690.58 598.146 648.884 619.72 606.484 639.556L603.288 633.384C607.314 630.977 614.763 627.786 619.29 625.561L650.866 609.967C660.056 605.459 669.61 601.047 678.194 595.509C678.89 583.609 678.397 568.373 678.419 556.178L678.054 470.681Z"/><path d="M675.83 449.923C680.618 449.46 688.145 449.682 688.009 457.345C687.968 459.611 685.571 462.204 683.708 463.503C678.875 463.836 671.164 463.184 671.601 455.45C671.723 453.285 674.04 451.139 675.83 449.923Z"/><path fill="#DCDBDD" d="M987.653 331.287C984.557 344.136 976.006 345.944 965.182 351.569L930.611 369.252L802.01 435.506C789.928 441.734 777.6 447.546 765.54 453.793C760.22 456.549 752.772 459.918 747.912 463.187C746.843 468.725 746.702 473.768 742.431 478.03C736.546 483.903 730.423 481.112 725.562 475.962C718.946 465.725 723.715 458.303 734.268 454.536C738.039 455.728 740.483 456.382 744.35 457.2C748.807 455.496 755.195 451.949 759.584 449.669L784.314 436.795L853.544 401.145L942.546 354.966C957.731 347.094 972.762 339.725 987.653 331.287Z"/><path d="M733.805 460.376C737.717 460.57 741.281 462.435 742.522 466.354C743.14 468.274 742.948 470.364 741.989 472.139C740.618 474.679 738.658 475.24 736.064 476.024C724.864 473.646 722.71 464.058 733.805 460.376Z"/><path fill="#AAAAAB" d="M822.003 555.641C839.417 546.036 860.748 538.963 878.54 529.546C887.051 525.042 895.962 521.811 904.511 516.892C900.682 524.762 897.531 532.799 893.918 540.759C885.209 559.946 876.296 578.15 868.762 597.829C862.607 595.987 856.611 594.508 850.381 592.953C851.966 589.413 855.719 581.836 855.709 578.34C852.73 576.539 814.718 591.957 808.451 593.981C808.281 593.583 808.34 593.846 808.547 593.179C810.071 592.556 810.682 592.412 811.934 591.298C812.851 588.272 813.222 587.065 815.062 584.355C812.361 585.391 809.928 586.755 807.132 586.584C811.158 584.546 818.977 581.564 823.423 579.688L850.325 568.046C856.048 565.579 863.24 562.96 868.169 559.248C870.644 557.384 876.715 546.827 875.266 543.921C871.016 542.25 835.451 559.283 828.479 561.758L828.045 561.908L826.378 561.754C824.855 562.48 824.739 562.789 823.202 562.7C823.308 560.512 823.283 560.336 821.999 558.559L821.401 557.746L822.076 556.471L822.003 555.641Z"/><path fill="#ECECEC" d="M103.939 358.295C110.368 361.129 119.569 366.286 126.033 369.641L167.607 391.162C197.842 406.825 232.403 423.787 261.715 440.258C267.082 438.973 273.132 435.892 278.271 439.078C285.138 443.336 286.192 450.267 282.343 456.849C277.945 461.378 272.723 464.296 266.473 460.447C261.44 457.348 260.348 453.4 259.048 448.003C227.199 432.364 195.587 414.955 163.932 398.809L129.095 380.913C123.33 377.985 115.65 374.6 110.514 371.005C107.799 369.105 105.277 361.72 103.939 358.295Z"/><path fill="#DCDBDD" d="M969.995 370.2C970.412 370.255 970.137 370.182 970.694 370.691C966.566 382.631 961.457 383.004 950.937 388.281L924.375 401.491C919.696 403.804 913.085 406.838 908.771 409.515L908.215 409.868C906.674 415.969 906.631 423.973 899.369 426.966C894.397 429.016 889.492 426.386 884.899 424.452C879.053 426.942 872.721 430.512 866.95 433.329C853.452 439.918 839.912 447.142 826.082 452.98C825.468 457.868 825.46 461.202 822.031 465.141C816.916 471.015 810.226 470.518 804.819 465.592C796.966 455.367 801.701 447.509 812.776 443.567L822.912 447.559C831.558 444.762 849.113 434.355 858.683 430.154C862.372 428.535 880.353 419.776 883.092 417.9C883.298 408.068 883.997 406.41 892.939 401.879C903.658 405.343 903.282 404.599 913.192 399.494C932.106 389.751 951.447 380.658 969.995 370.2Z"/><path d="M889.997 407.262C901.458 405.737 907.083 414.952 899.247 422.838C888.112 425.214 882.277 414.007 889.997 407.262Z"/><path d="M810.182 448.832C822.07 447.115 825.389 460.758 816.685 464.39C812.239 464.265 808.324 463.94 805.817 459.763C802.918 454.934 806.393 451.236 810.182 448.832Z"/><defs><linearGradient id="gradient_3" gradientUnits="userSpaceOnUse" x1="365.19092" y1="532.11859" x2="395.56" y2="656.83496"><stop offset="0" stop-color="#BFBBBA"/><stop offset="1" stop-color="#E6EAED"/></linearGradient></defs><path fill="url(#gradient_3)" d="M279.398 552.168C284.504 551.006 300.779 546.811 304.514 548.09C314.596 551.542 328.585 558.795 338.251 563.608C371.098 580.245 403.817 597.133 436.406 614.27C448.303 620.487 463.953 627.272 474.87 634.392L471.182 640.615C435.303 620.915 394.863 601.426 357.982 583.334C346.305 577.565 334.558 571.937 322.745 566.453C304.596 558.051 306.308 556.789 286.612 560.54C288.725 558.57 291.031 558.469 293.9 557.898L293.701 557.249C290.793 555.506 289.61 555.003 287.749 551.991C285.786 551.689 282.161 552.412 279.398 552.168Z"/><path fill="#DCDBDD" d="M612.404 472.67C623.258 473.172 628.169 482.806 622.154 491.898C620.664 494.151 618.004 496.262 615.954 498.072C615.151 508.937 616.184 525.774 616.346 536.857C616.55 550.776 616.246 565.553 616.743 579.323C619.972 582.317 624.849 586.298 625.258 590.858C625.947 598.549 619.182 604.417 612.096 605.319C607.473 604.645 603.024 602.327 600.743 598.084C599.241 595.326 598.976 592.062 600.013 589.098C601.88 583.801 605.857 581.723 610.462 579.468C609.303 554.679 610.018 524.071 609.989 498.674C601.429 493.398 600.584 491.699 600.145 481.808C603.33 476.176 606.027 473.875 612.404 472.67Z"/><path d="M610.671 477.88C621.872 478.599 625.106 488.084 614.867 492.034C601.53 493.022 601.037 480.562 610.671 477.88Z"/><path d="M608.435 585.469C609.403 585.4 612.822 585.094 613.58 585.324C622.34 587.973 622.592 594.462 615.556 599.016C611.685 599.783 608.22 599.871 605.598 596.355C604.533 594.938 604.1 593.144 604.401 591.396C604.879 588.451 606.216 587.197 608.435 585.469Z"/><path fill="#DCDBDD" d="M647.764 463.068C655.844 462.473 662.904 467.594 662.122 476.247C661.592 482.117 657.589 485.333 653.441 488.871C652.84 495.33 652.997 502.198 653.089 508.705C653.383 529.493 652.134 550.722 652.949 571.46C656.184 574.133 658.997 576.029 660.303 580.204C662.9 588.507 658.539 594.505 650.788 596.984C641.455 597.272 634.909 591.678 637.195 581.847C638.473 576.35 642.362 574.128 646.766 571.374C646.906 560.182 648.212 495.338 646.231 490.032C644.85 486.335 639.981 484.717 638.223 481.011C636.949 478.325 637.028 474.657 638.042 471.898C639.633 467.569 643.738 464.845 647.764 463.068Z"/><path d="M648.318 576.977C658.08 578.13 659.977 587.433 651.459 591.786C646.899 591.683 642.981 591.065 641.584 586.186C639.989 580.618 643.828 578.166 648.318 576.977Z"/><path d="M647.481 468.864C651.721 468.727 654.905 469.026 657.095 473.241C657.856 474.719 657.984 476.442 657.448 478.016C656.564 480.668 654.832 481.748 652.52 483.001C647.419 482.904 640.674 481.605 642.219 473.856C642.692 471.489 645.366 469.883 647.481 468.864Z"/><path fill="#ECECEC" d="M437.467 714.456C437.399 720.285 437.329 725.722 436.963 731.552C434.176 736.04 429.789 739.292 426.649 743.329C418.791 753.432 407.064 763.88 399.918 774.099C404.004 777.62 427.052 790.322 432.216 790.106C434.134 789.037 435.433 786.284 436.625 784.305C436.118 792.932 436.293 801.552 436.291 810.198C434.374 808.889 431.842 807.491 429.805 806.291C420.677 801.054 411.074 795.95 401.818 790.923C395.681 787.589 389.377 784.944 383.229 781.363C402 760.58 419.422 735.216 437.467 714.456Z"/><path fill="#DCDBDD" d="M468.828 521.174C476.14 520.995 482.631 526.218 482.559 533.839C482.499 540.168 478.239 543.126 474.184 547.257C473.625 556.958 473.461 584.705 474.118 594.341C477.733 597.831 480.762 600.275 481.513 605.582C482.525 612.726 476.385 616.653 470.07 617.357C463.692 616.453 458.13 611.868 459.333 604.821C460.267 599.348 463.527 597.134 467.633 593.999C467.746 578.012 467.877 563.25 467.22 547.244C460.357 542.876 453.112 536.502 458.551 526.814C460.558 523.241 464.922 521.89 468.828 521.174Z"/><path d="M468.441 526.906C480.552 527.201 480.02 539.341 471.723 540.675C470.69 540.659 467.361 540.62 466.636 540.168C459.011 535.408 460.893 529.3 468.441 526.906Z"/><path fill="#DCDBDD" d="M159.1 481.971C179.629 492.584 200.319 502.884 221.162 512.868C229.861 517.072 240.137 521.565 248.527 526.076L245.359 531.884L244.564 533.156C244.225 533.232 243.886 533.308 243.547 533.384C219.242 522.215 193.973 509.613 170.008 498.113C161.946 494.244 161.074 488.284 159.1 481.971Z"/><defs><linearGradient id="gradient_4" gradientUnits="userSpaceOnUse" x1="815.74463" y1="596.76172" x2="754.29974" y2="604.28357"><stop offset="0" stop-color="#A0A0A1"/><stop offset="1" stop-color="#E3E3E3"/></linearGradient></defs><path fill="url(#gradient_4)" d="M815.062 584.355C813.222 587.065 812.851 588.272 811.934 591.298C810.682 592.412 810.071 592.556 808.547 593.179C808.34 593.846 808.281 593.583 808.451 593.981C801.937 597.721 785.753 601.549 778.124 604.694C774.997 609.025 774.373 613.68 768.794 616.054C766.252 617.162 763.353 617.11 760.852 615.912C757.929 614.533 755.603 611.782 754.549 608.745C753.504 605.762 753.772 602.476 755.287 599.703C757.767 595.202 761.094 594.125 765.599 592.871C768.343 593.905 773.006 596.714 775.81 598.247C785.464 595.579 796.955 589.789 807.132 586.584C809.928 586.755 812.361 585.391 815.062 584.355Z"/><path fill="#AAAAAB" d="M917.966 485.698C918.282 488.289 914.009 496.507 911.683 497.779C901.306 503.453 890.019 508.386 879.336 513.459C868.47 518.701 857.551 523.835 846.583 528.861C843.073 530.458 838.943 532.785 835.581 534.035L834.677 533.438L831.88 527.5C844.884 522.402 863.241 512.776 876.262 506.773C883.742 503.324 913.157 489.683 917.966 485.698Z"/></svg>